<svg viewBox="0 0 24 22" fill="none" xmlns="http://www.w3.org/2000/svg">
<path d="M13.5 18.375L13.25 19.875C13.25 20.25 13.125 20.5 12.875 20.75C12.625 20.875 12.375 21 12 21C11.625 21 11.375 20.875 11.125 20.75C10.875 20.5 10.75 20.25 10.75 19.875L10.5 18.375M13.5 18.375C12.5 18.625 11.5 18.625 10.5 18.375M13.5 18.375C15 18 16.125 16.875 16.375 14.875L17.875 3.375M13.5 18.375L14.875 7.25C15.25 5.125 16.125 3.75 17.875 3.375M10.5 18.375L9.125 7.25C8.875 5.125 7.875 3.75 6.25 3.375M10.5 18.375C9 18 8 16.875 7.75 14.875L6.25 3.375M17.875 3.375L18 2.375C18.125 1.5 18.625 1 19.375 1C20.125 1 20.625 1.5 20.625 2.5V3.5M17.875 3.375C18.75 3.25 19.75 3.25 20.625 3.5M6.25 3.375C5.75 3.25 5.375 3.25 5 3.25C4.5 3.25 3.875 3.375 3.375 3.5M6.25 3.375L6.125 2.375C5.875 1.375 5.375 1 4.625 1C3.875 1 3.375 1.5 3.375 2.5V3.5M20.625 3.5C22.125 4 23 5.25 23 7.125V20.75H20.625V3.5ZM3.375 3.5V20.75H1V7.125C1 5.25 1.875 4 3.375 3.5Z" stroke="white" stroke-width="1.3333" stroke-miterlimit="5.3333"/>
</svg>
