<svg xmlns="http://www.w3.org/2000/svg" fill="none"><g clip-path="url(#a)"><circle cx="22" cy="22" r="22" fill="#C4A7E7"/><path stroke="#fff" stroke-miterlimit="5.333" stroke-width="1.333" d="m23.5 29.375-.25 1.5c0 .375-.125.625-.375.875-.25.125-.5.25-.875.25s-.625-.125-.875-.25c-.25-.25-.375-.5-.375-.875l-.25-1.5m3 0c-1 .25-2 .25-3 0m3 0c1.5-.375 2.625-1.5 2.875-3.5l1.5-11.5m-4.375 15 1.375-11.125c.375-2.125 1.25-3.5 3-3.875m-7.375 15L19.125 18.25c-.25-2.125-1.25-3.5-2.875-3.875m4.25 15c-1.5-.375-2.5-1.5-2.75-3.5l-1.5-11.5m14.375.125c1.5.5 2.375 1.75 2.375 3.625V31.75h-2.375V14.5Zm0 0v-1c0-1-.5-1.5-1.25-1.5s-1.25.5-1.375 1.375l-.125 1m2.75.125c-.875-.25-1.875-.25-2.75-.125m-14.5.125v17.25H11V18.125c0-1.875.875-3.125 2.375-3.625Zm0 0c.5-.125 1.125-.25 1.625-.25.375 0 .75 0 1.25.125m-2.875.125v-1c0-1 .5-1.5 1.25-1.5s1.25.375 1.5 1.375l.125 1"/></g><defs><clipPath id="a"><path fill="#fff" d="M0 0h44v44H0z"/></clipPath></defs></svg>
