<svg viewBox="0 0 44 44" xmlns="http://www.w3.org/2000/svg" fill="none"><g clip-path="url(#a)"><circle cx="22" cy="22" r="22" fill="#C4A7E7"/><path stroke="#fff" stroke-miterlimit="5.3" stroke-width="1.3" d="m23.5 29.4-.3 1.5c0 .4 0 .6-.3.9l-.9.2c-.4 0-.6-.1-.9-.3-.2-.2-.4-.4-.4-.8l-.2-1.5m3 0a6 6 0 0 1-3 0m3 0c1.5-.4 2.6-1.5 2.9-3.5l1.5-11.5m-4.4 15 1.4-11.1c.4-2.2 1.2-3.6 3-4m-7.4 15-1.4-11c-.2-2.2-1.2-3.6-2.9-4m4.3 15C19 29 18 28 17.7 26l-1.4-11.5m14.3.1c1.5.5 2.4 1.8 2.4 3.6v13.6h-2.4V14.6Zm0 0v-1c0-1-.5-1.5-1.2-1.5s-1.3.5-1.4 1.4l-.1 1m2.7.1c-.9-.3-1.9-.3-2.7-.1m-14.5.1v17.3H11V18c0-1.9.9-3.1 2.4-3.6Zm0 0 1.6-.3c.4 0 .8 0 1.3.2m-3 .1v-1c0-1 .6-1.5 1.3-1.5s1.3.4 1.5 1.4l.1 1"/></g><defs><clipPath id="a"><path fill="#fff" d="M0 0h44v44H0z"/></clipPath></defs></svg>
