<svg viewBox="0 0 393 648" fill="none" xmlns="http://www.w3.org/2000/svg">
<g clip-path="url(#clip0_81_1935)">
<path opacity="0.35" d="M-41.4104 -200.419C-97.8051 -173.136 -121.404 -105.305 -94.1215 -48.9103C-66.8396 7.48289 0.992682 31.0835 57.3873 3.80083C113.781 -23.4811 137.38 -91.3149 110.099 -147.708C82.8158 -204.103 14.9828 -227.701 -41.4104 -200.419Z" stroke="#828282" stroke-width="2.5" stroke-miterlimit="10"/>
<path opacity="0.43" d="M-32.8077 -182.634C-99.5956 -150.323 -127.546 -69.9879 -95.2348 -3.19848C-62.924 63.5895 17.413 91.5393 84.201 59.2286C150.99 26.9171 178.939 -53.4192 146.628 -120.207C114.317 -186.997 33.9818 -214.946 -32.8077 -182.634Z" stroke="#828282" stroke-width="2.5" stroke-miterlimit="10"/>
<path opacity="0.51" d="M-24.2753 -164.999C-101.458 -127.659 -133.758 -34.8186 -96.4184 42.3641C-59.0781 119.548 33.7616 151.847 110.944 114.507C188.128 77.1669 220.428 -15.6713 183.087 -92.8555C145.748 -170.038 52.9089 -202.339 -24.2753 -164.999Z" stroke="#828282" stroke-width="2.5" stroke-miterlimit="10"/>
<path opacity="0.59" d="M-97.7518 87.9987L-97.6801 88.1469C-55.3118 175.724 50.032 212.374 137.609 170.006L137.758 169.934C225.335 127.566 261.985 22.2222 219.617 -65.3552L219.545 -65.5035C177.177 -153.081 71.833 -189.731 -15.7445 -147.362L-15.8927 -147.291C-103.47 -104.922 -140.12 0.421253 -97.7518 87.9987Z" stroke="#828282" stroke-width="2.5" stroke-miterlimit="10"/>
<path opacity="0.67" d="M-98.865 133.709L-98.7934 133.858C-51.3962 231.83 66.4494 272.831 164.423 225.433L164.571 225.361C262.544 177.964 303.544 60.1168 256.146 -37.8555L256.075 -38.0036C208.677 -135.977 90.8305 -176.976 -7.14177 -129.579L-7.28995 -129.507C-105.264 -82.1092 -146.263 35.7357 -98.865 133.709Z" stroke="#B1B1B1" stroke-width="2.5" stroke-miterlimit="10"/>
<path opacity="0.75" d="M1.31653 -111.907C-107.093 -59.4601 -152.459 70.938 -100.013 179.346C-47.5668 287.755 82.8305 333.122 191.24 280.676C299.649 228.23 345.016 97.831 292.57 -10.5775C240.124 -118.986 109.725 -164.353 1.31653 -111.907Z" stroke="#B2B2B2" stroke-width="2.5" stroke-miterlimit="10"/>
<path opacity="0.84" d="M9.92152 -94.3062C-108.922 -36.8121 -158.657 106.139 -101.162 224.984C-43.6672 343.829 99.2849 393.562 218.128 336.068C336.973 278.573 386.706 135.622 329.212 16.7773C271.717 -102.067 128.766 -151.801 9.92152 -94.3062Z" stroke="#B7B7B7" stroke-width="2.5" stroke-miterlimit="10"/>
<path opacity="0.92" d="M18.4538 -76.6703C-110.786 -14.1467 -164.869 141.307 -102.345 270.546C-39.8218 399.786 115.632 453.87 244.871 391.346C374.111 328.822 428.194 173.369 365.671 44.1292C303.147 -85.1104 147.693 -139.194 18.4538 -76.6703Z" stroke="#C6C6C6" stroke-width="2.5" stroke-miterlimit="10"/>
<path d="M26.9086 -58.8146C-112.726 8.73786 -171.16 176.695 -103.607 316.329C-36.0549 455.963 131.903 514.397 271.537 446.845C411.171 379.292 469.605 211.335 402.052 71.7008C334.5 -67.9335 166.543 -126.367 26.9086 -58.8146Z" stroke="#CCCCCC" stroke-width="2.5" stroke-miterlimit="10"/>
<circle cx="8.30309" cy="8.30309" r="20.8031" transform="matrix(0.980284 0.197591 0.197592 -0.980284 53.7227 360.855)" fill="#9A9B9A" stroke="#9A9B9A" stroke-width="25"/>
<circle cx="8.30309" cy="8.30309" r="8.30309" transform="matrix(0.980284 0.197591 0.197592 -0.980284 99.7266 49.5142)" fill="#383D39"/>
<circle cx="8.30309" cy="8.30309" r="8.30309" transform="matrix(0.980284 0.197591 0.197592 -0.980284 288.016 173.447)" fill="#868887"/>
<circle cx="8.30309" cy="8.30309" r="8.30309" transform="matrix(0.980284 0.197591 0.197592 -0.980284 55.7461 470.294)" fill="#CCCCCC"/>
<circle cx="8.30309" cy="8.30309" r="9.55309" transform="matrix(0.980284 0.197591 0.197592 -0.980284 154.141 160.299)" fill="#000802" stroke="#4D504E" stroke-width="2.5"/>
<circle cx="8.30309" cy="8.30309" r="9.55309" transform="matrix(0.980284 0.197591 0.197592 -0.980284 188.219 413.807)" fill="#000802" stroke="#B6B7B6" stroke-width="2.5"/>
<circle cx="8.30309" cy="8.30309" r="18.3031" transform="matrix(0.980284 0.197591 0.197592 -0.980284 -11.5508 134.385)" fill="#424643" stroke="#424643" stroke-width="20"/>
<circle cx="4.54543" cy="4.54543" r="12.5454" transform="matrix(0.980284 0.197591 0.197592 -0.980284 348.008 121.276)" fill="#9A9B9A" stroke="#9A9B9A" stroke-width="16"/>
<mask id="path-18-inside-1_81_1935" fill="white">
<path fill-rule="evenodd" clip-rule="evenodd" d="M153.132 230.23L150.217 263.554L124.361 242.331L124.362 242.33L127.277 209.006L153.133 230.229L153.132 230.23Z"/>
</mask>
<path fill-rule="evenodd" clip-rule="evenodd" d="M153.132 230.23L150.217 263.554L124.361 242.331L124.362 242.33L127.277 209.006L153.133 230.229L153.132 230.23Z" fill="#000802"/>
<path d="M150.217 263.554L152.708 263.771L152.295 268.493L148.631 265.486L150.217 263.554ZM153.132 230.23L150.641 230.012L150.773 228.502L152.173 227.921L153.132 230.23ZM124.361 242.331L122.775 244.263L119.571 241.633L123.392 240.026L124.361 242.331ZM124.362 242.33L126.853 242.548L126.722 244.05L125.332 244.634L124.362 242.33ZM127.277 209.006L124.786 208.788L125.199 204.066L128.863 207.074L127.277 209.006ZM153.133 230.229L154.719 228.297L157.94 230.94L154.092 232.538L153.133 230.229ZM147.727 263.336L150.641 230.012L155.622 230.447L152.708 263.771L147.727 263.336ZM125.947 240.398L151.804 261.621L148.631 265.486L122.775 244.263L125.947 240.398ZM125.332 244.634L125.33 244.635L123.392 240.026L123.393 240.025L125.332 244.634ZM129.767 209.224L126.853 242.548L121.872 242.112L124.786 208.788L129.767 209.224ZM151.547 232.161L125.691 210.938L128.863 207.074L154.719 228.297L151.547 232.161ZM152.173 227.921L152.175 227.92L154.092 232.538L154.09 232.539L152.173 227.921Z" fill="#777A78" mask="url(#path-18-inside-1_81_1935)"/>
<mask id="path-20-inside-2_81_1935" fill="white">
<path fill-rule="evenodd" clip-rule="evenodd" d="M347.992 299.923L357.879 331.879L325.922 321.993L325.923 321.992L316.037 290.035L347.994 299.922L347.992 299.923Z"/>
</mask>
<path fill-rule="evenodd" clip-rule="evenodd" d="M347.992 299.923L357.879 331.879L325.922 321.993L325.923 321.992L316.037 290.035L347.994 299.922L347.992 299.923Z" fill="#000802"/>
<path d="M357.879 331.879L360.267 331.141L361.668 335.669L357.14 334.268L357.879 331.879ZM347.992 299.923L345.604 300.662L345.156 299.213L346.233 298.147L347.992 299.923ZM325.922 321.993L325.183 324.381L321.223 323.156L324.154 320.225L325.922 321.993ZM325.923 321.992L328.312 321.253L328.757 322.693L327.691 323.76L325.923 321.992ZM316.037 290.035L313.649 290.774L312.248 286.246L316.776 287.647L316.037 290.035ZM347.994 299.922L348.732 297.533L352.713 298.765L349.753 301.698L347.994 299.922ZM355.491 332.618L345.604 300.662L350.381 299.184L360.267 331.141L355.491 332.618ZM326.661 319.605L358.618 329.491L357.14 334.268L325.183 324.381L326.661 319.605ZM327.691 323.76L327.69 323.761L324.154 320.225L324.156 320.224L327.691 323.76ZM318.425 289.296L328.312 321.253L323.535 322.731L313.649 290.774L318.425 289.296ZM347.255 302.31L315.298 292.423L316.776 287.647L348.732 297.533L347.255 302.31ZM346.233 298.147L346.234 298.146L349.753 301.698L349.752 301.699L346.233 298.147Z" fill="#B6B7B6" mask="url(#path-20-inside-2_81_1935)"/>
<circle cx="5.3383" cy="5.3383" r="13.3383" transform="matrix(0.980284 0.197591 0.197592 -0.980284 276 444.466)" fill="#CCCCCC" stroke="#CCCCCC" stroke-width="16"/>
</g>
<defs>
<clipPath id="clip0_81_1935">
<rect width="823.16" height="823.16" fill="white" transform="translate(-92.0312 647.971) rotate(-115.817)"/>
</clipPath>
</defs>
</svg>
